<?xml version="1.0" standalone="no"?><svg xmlns="http://www.w3.org/2000/svg" viewBox="0 0 1440 320"><path fill="#091a1f" fill-opacity="1" d="M0,64L26.7,85.3C53.3,107,107,149,160,165.3C213.3,181,267,171,320,138.7C373.3,107,427,53,480,32C533.3,11,587,21,640,42.7C693.3,64,747,96,800,101.3C853.3,107,907,85,960,90.7C1013.3,96,1067,128,1120,149.3C1173.3,171,1227,181,1280,192C1333.3,203,1387,213,1413,218.7L1440,224L1440,320L1413.3,320C1386.7,320,1333,320,1280,320C1226.7,320,1173,320,1120,320C1066.7,320,1013,320,960,320C906.7,320,853,320,800,320C746.7,320,693,320,640,320C586.7,320,533,320,480,320C426.7,320,373,320,320,320C266.7,320,213,320,160,320C106.7,320,53,320,27,320L0,320Z"></path></svg>